:version 1.10
:name ASF
:units
  mass 1
  length 1
  angle deg
:documentation
  ASF file generated by Kaydara
:root
  axis xyz
  order  tx ty tz rx ry rz
  position 0 0 0
  orientation 0 0 0
:bonedata
  begin
    id 1
    name RightUpLegDummy
    direction -1 2.30186e-007 8.31532e-007
    length 4.04083
    axis 0 0 0 xyz
  end
  begin
    id 2
    name RightUpLeg
    direction -0.000919234 -0.999985 0.00544864
    length 17.4221
    axis -3.80308 -0.00076134 -0.0523649 xyz
    dof rx ry rz
  end
  begin
    id 3
    name RightLeg
    direction -0.000919271 -0.999984 -0.00555045
    length 17.1239
    axis 4.00314 0.0181274 -0.183583 xyz
    dof rx ry rz
  end
  begin
    id 4
    name RightFoot
    direction -2.57843e-005 -4.04509e-007 1
    length 6.72091
    axis 8.18909e-005 -0.122003 -0.403008 xyz
    dof rx ry rz
  end
  begin
    id 5
    name RightToes
    direction 0.00116825 -0.014069 0.9999
    length 3.85082
    axis 0.000514414 0.540638 -0.356797 xyz
    dof rx ry rz
  end
  begin
    id 6
    name SpineDummy
    direction 0.0168869 0.966876 -0.254689
    length 6.99894
    axis 0 0 0 xyz
  end
  begin
    id 7
    name Spine
    direction -0.0132008 0.999903 0.00446247
    length 11.1999
    axis -0.00148109 0.00725429 0.756411 xyz
    dof rx ry rz
  end
  begin
    id 8
    name Spine1
    direction 0 0 0
    length 0
    axis -0.000934958 0.0245693 1.46543 xyz
    dof rx ry rz
  end
  begin
    id 9
    name HEadDummy
    direction -0.0255732 0.999672 0.00128215
    length 3.43865
    axis -0.000934958 0.0245693 1.46543 xyz
  end
  begin
    id 10
    name HEad
    direction -0.0472656 0.980052 0.19304
    length 5.12695
    axis -0.000934954 0.0245693 1.46543 xyz
    dof rx ry rz
  end
  begin
    id 11
    name LeftShoulder1Dummy
    direction 0.953098 0.301717 -0.023914
    length 3.68488
    axis -0.000934958 0.0245693 1.46543 xyz
  end
  begin
    id 12
    name LeftShoulder1
    direction 0.962466 0.271167 0.0112566
    length 3.13809
    axis -0.000934958 0.0245693 1.46543 xyz
    dof rx ry rz
  end
  begin
    id 13
    name LeftArm
    direction 0.999943 0.00455037 -0.00961766
    length 11.3419
    axis -23.1648 0.685459 1.22814 xyz
    dof rx ry rz
  end
  begin
    id 14
    name LeftForeArm
    direction 0.999332 0.0131969 0.0340885
    length 8.70632
    axis -9.90633 0.618216 0.0826942 xyz
    dof rx ry rz
  end
  begin
    id 15
    name LeftHand
    direction 0.994373 -0.0366703 0.0993905
    length 5.32135
    axis 0.00675269 0.680415 0.445699 xyz
    dof rx ry rz
  end
  begin
    id 16
    name RightShoulderDummy
    direction -0.967298 0.252589 -0.0230903
    length 3.68488
    axis -0.000934958 0.0245693 1.46543 xyz
  end
  begin
    id 17
    name RightShoulder
    direction -0.975062 0.221602 0.0120823
    length 3.13809
    axis 0.216257 0.0246515 1.45863 xyz
    dof rx ry rz
  end
  begin
    id 18
    name RightArm
    direction -0.99886 -0.00851186 -0.0469687
    length 10.3947
    axis -23.196 0.23503 -0.532632 xyz
    dof rx ry rz
  end
  begin
    id 19
    name RightForeArm
    direction -0.99909 0.00114866 0.0426317
    length 8.68355
    axis -9.91764 -0.134943 0.610517 xyz
    dof rx ry rz
  end
  begin
    id 20
    name RightHand
    direction -0.992888 -0.0489538 0.10852
    length 5.28593
    axis -0.00275396 -0.197403 0.246414 xyz
    dof rx ry rz
  end
  begin
    id 21
    name LeftUpLegDummy
    direction 1 -2.30186e-007 -8.31532e-007
    length 4.04083
    axis 0 0 0 xyz
  end
  begin
    id 22
    name LeftUpLeg
    direction -0.000920097 -1 2.79241e-006
    length 17.4221
    axis -3.48782 0.00143434 -0.0532288 xyz
    dof rx ry rz
  end
  begin
    id 23
    name LeftLeg
    direction -0.000920097 -1 2.7912e-006
    length 17.1239
    axis 3.68162 -0.00806512 -0.0529896 xyz
    dof rx ry rz
  end
  begin
    id 24
    name LeftFoot
    direction -2.57845e-005 -3.987e-007 1
    length 6.72091
    axis 3.02372e-005 -0.00147829 -0.214229 xyz
    dof rx ry rz
  end
  begin
    id 25
    name LeftToes
    direction 0.00813577 -0.00488255 0.999955
    length 3.85048
    axis 3.89895e-005 -0.0014783 -0.214229 xyz
    dof rx ry rz
  end
:hierarchy
  begin
    root RightUpLegDummy SpineDummy LeftUpLegDummy
    RightUpLegDummy RightUpLeg
    RightUpLeg RightLeg
    RightLeg RightFoot
    RightFoot RightToes
    SpineDummy Spine
    Spine Spine1
    Spine1 HEadDummy LeftShoulder1Dummy RightShoulderDummy
    HEadDummy HEad
    LeftShoulder1Dummy LeftShoulder1
    LeftShoulder1 LeftArm
    LeftArm LeftForeArm
    LeftForeArm LeftHand
    RightShoulderDummy RightShoulder
    RightShoulder RightArm
    RightArm RightForeArm
    RightForeArm RightHand
    LeftUpLegDummy LeftUpLeg
    LeftUpLeg LeftLeg
    LeftLeg LeftFoot
    LeftFoot LeftToes
  end

:SAMPLES-PER-SECOND 30
:FULLY-SPECIFIED
:DEGREES
85
root  31.618 34.6405 -36.3563 8.99182 -46.2059 0.443321
RightUpLeg  -6.73426 -16.3346 2.19869
RightLeg  4.57183 -1.74158 -0.0362609
RightFoot  1.82693 0.0130307 0.068107
RightToes  -19.7862 -0.0730792 -0.172924
Spine  -3.07669 -0.280544 0.46565
Spine1  -6.21896 -0.487692 1.54512
HEad  -58.8084 -4.42065 5.75938
LeftShoulder1  -1.94126e-019 -3.10601e-018 -2.51263e-017
LeftArm  -12.931 26.9725 -82.8716
LeftForeArm  34.7537 -16.5434 -2.68021
LeftHand  -0.42013 -1.56924 7.30144
RightShoulder  -4.96962e-017 0 -2.36833e-017
RightArm  -34.7912 -26.0762 76.5864
RightForeArm  54.9917 13.5974 1.30462
RightHand  -0.30882 -2.08689 -10.529
LeftUpLeg  -6.85045 6.06519 -0.665899
LeftLeg  5.29516 14.4823 0.415305
LeftFoot  2.95896 -0.0302548 0.897534
LeftToes  -16.5475 1.34695e-006 1.12385e-007
86
root  31.6274 34.6406 -36.3717 8.98845 -46.1678 0.455326
RightUpLeg  -6.76126 -16.3273 2.2084
RightLeg  4.57556 -1.77928 -0.0310563
RightFoot  1.83857 0.0129835 0.0687817
RightToes  -19.8016 -0.0730792 -0.172924
Spine  -3.05466 -0.281503 0.450769
Spine1  -6.17494 -0.493336 1.51493
HEad  -58.8404 -4.4033 5.76076
LeftShoulder1  -1.94126e-019 -3.10601e-018 -2.51263e-017
LeftArm  -12.9406 26.9301 -82.8857
LeftForeArm  34.7711 -16.5184 -2.67463
LeftHand  -0.420075 -1.564 7.34832
RightShoulder  -4.96962e-017 0 -2.36833e-017
RightArm  -34.7935 -26.0691 76.5966
RightForeArm  55.0005 13.617 1.30009
RightHand  -0.309871 -2.11645 -10.4995
LeftUpLeg  -6.89081 6.05318 -0.665154
LeftLeg  5.30016 14.4718 0.416322
LeftFoot  2.99332 -0.030782 0.905727
LeftToes  -16.7348 1.34695e-006 1.12385e-007
87
root  31.6305 34.6407 -36.3845 8.98462 -46.1455 0.464898
RightUpLeg  -6.79038 -16.3166 2.21955
RightLeg  4.59197 -1.80279 -0.0275082
RightFoot  1.82043 0.0129285 0.0695672
RightToes  -19.7708 -0.0730792 -0.172924
Spine  -3.03649 -0.279575 0.437306
Spine1  -6.13872 -0.490678 1.48735
HEad  -58.8703 -4.33946 5.72811
LeftShoulder1  -1.94126e-019 -3.10601e-018 -2.51263e-017
LeftArm  -12.9318 26.9169 -82.8805
LeftForeArm  34.7721 -16.5419 -2.67594
LeftHand  -0.421831 -1.57741 7.32319
RightShoulder  -4.96962e-017 0 -2.36833e-017
RightArm  -34.8272 -26.0401 76.612
RightForeArm  55.0607 13.5689 1.31272
RightHand  -0.309234 -2.09326 -10.5195
LeftUpLeg  -6.92478 6.02367 -0.661362
LeftLeg  5.31538 14.4745 0.415326
LeftFoot  2.99264 -0.0307735 0.905596
LeftToes  -16.6966 1.34695e-006 1.12385e-007
88
root  31.6335 34.6408 -36.3958 8.98372 -46.1266 0.472223
RightUpLeg  -6.81938 -16.3305 2.23163
RightLeg  4.60708 -1.80512 -0.0268159
RightFoot  1.81334 0.0128654 0.0704686
RightToes  -19.7488 -0.0730792 -0.172924
Spine  -3.01614 -0.268382 0.425143
Spine1  -6.09806 -0.469454 1.46223
HEad  -58.9024 -4.32125 5.73026
LeftShoulder1  -1.94126e-019 -3.10601e-018 -2.51263e-017
LeftArm  -12.9287 26.8757 -82.9041
LeftForeArm  34.7795 -16.5028 -2.67056
LeftHand  -0.42149 -1.58963 7.40508
RightShoulder  -4.96962e-017 0 -2.36833e-017
RightArm  -34.8458 -26.0215 76.6401
RightForeArm  55.0874 13.5393 1.32122
RightHand  -0.308949 -2.13951 -10.5284
LeftUpLeg  -6.95253 5.98393 -0.657693
LeftLeg  5.32784 14.4976 0.411442
LeftFoot  2.99941 -0.0311117 0.910852
LeftToes  -16.711 1.34695e-006 1.12385e-007
89
root  31.6337 34.641 -36.4055 8.98981 -46.0966 0.478228
RightUpLeg  -6.84176 -16.378 2.24642
RightLeg  4.61326 -1.78519 -0.0278919
RightFoot  1.80128 0.0127939 0.0714909
RightToes  -19.6976 -0.0730792 -0.172924
Spine  -2.99482 -0.261354 0.411777
Spine1  -6.05536 -0.456606 1.43534
HEad  -58.9201 -4.31835 5.71935
LeftShoulder1  -1.94126e-019 -3.10601e-018 -2.51263e-017
LeftArm  -12.9537 26.8305 -82.905
LeftForeArm  34.7738 -16.4741 -2.66761
LeftHand  -0.424306 -1.60811 7.3467
RightShoulder  -4.96962e-017 0 -2.36833e-017
RightArm  -34.8564 -26.0074 76.6851
RightForeArm  55.072 13.5257 1.3262
RightHand  -0.308616 -2.12529 -10.5353
LeftUpLeg  -6.98075 5.9697 -0.649462
LeftLeg  5.33129 14.4813 0.411852
LeftFoot  3.02636 -0.031352 0.914587
LeftToes  -16.8072 1.34695e-006 1.12385e-007
90
root  31.6318 34.6412 -36.415 9.00114 -46.065 0.487012
RightUpLeg  -6.87063 -16.4416 2.26229
RightLeg  4.62265 -1.75016 -0.0276131
RightFoot  1.78527 0.0127135 0.0726392
RightToes  -19.6679 -0.0730792 -0.172924
Spine  -2.97164 -0.258402 0.399541
Spine1  -6.00896 -0.451308 1.41149
HEad  -58.9039 -4.29641 5.72613
LeftShoulder1  -1.94126e-019 -3.10601e-018 -2.51263e-017
LeftArm  -12.979 26.8123 -82.9367
LeftForeArm  34.7423 -16.4338 -2.66059
LeftHand  -0.425361 -1.58721 7.36423
RightShoulder  -4.96962e-017 0 -2.36833e-017
RightArm  -34.8408 -25.9828 76.7508
RightForeArm  55.0953 13.539 1.32502
RightHand  -0.307478 -2.07283 -10.5644
LeftUpLeg  -7.00825 5.95654 -0.642852
LeftLeg  5.32754 14.4695 0.410586
LeftFoot  3.00427 -0.0309523 0.908374
LeftToes  -16.6085 1.34695e-006 1.12385e-007
